<svg width="150" height="26" viewBox="0 0 150 26" fill="none" xmlns="http://www.w3.org/2000/svg">
<g clip-path="url(#clip0_2400_9)">
<path d="M17.104 8.768C17.104 10.0693 16.8053 11.264 16.208 12.352C15.6107 13.4187 14.6933 14.2827 13.456 14.944C12.2187 15.6053 10.6827 15.936 8.848 15.936H5.456V24H-0.0159999V1.536H8.848C10.64 1.536 12.1547 1.84533 13.392 2.464C14.6293 3.08267 15.5573 3.936 16.176 5.024C16.7947 6.112 17.104 7.36 17.104 8.768ZM8.432 11.584C9.47733 11.584 10.256 11.3387 10.768 10.848C11.28 10.3573 11.536 9.664 11.536 8.768C11.536 7.872 11.28 7.17867 10.768 6.688C10.256 6.19733 9.47733 5.952 8.432 5.952H5.456V11.584H8.432ZM25.4248 9.12C26.0648 8.13867 26.8648 7.37067 27.8248 6.816C28.7848 6.24 29.8514 5.952 31.0248 5.952V11.744H29.5208C28.1554 11.744 27.1314 12.0427 26.4488 12.64C25.7661 13.216 25.4248 14.24 25.4248 15.712V24H19.9528V6.144H25.4248V9.12ZM38.7603 19.488H46.5043V24H32.6483V19.648L40.0723 10.656H32.7122V6.144H46.3443V10.496L38.7603 19.488ZM66.3472 14.784C66.3472 15.296 66.3153 15.8293 66.2513 16.384H53.8673C53.9526 17.4933 54.3046 18.3467 54.9233 18.944C55.5633 19.52 56.3419 19.808 57.2593 19.808C58.6246 19.808 59.5739 19.232 60.1073 18.08H65.9313C65.6326 19.2533 65.0886 20.3093 64.2993 21.248C63.5313 22.1867 62.5606 22.9227 61.3873 23.456C60.2139 23.9893 58.9019 24.256 57.4513 24.256C55.7019 24.256 54.1446 23.8827 52.7793 23.136C51.4139 22.3893 50.3473 21.3227 49.5793 19.936C48.8113 18.5493 48.4273 16.928 48.4273 15.072C48.4273 13.216 48.8006 11.5947 49.5473 10.208C50.3153 8.82133 51.3819 7.75467 52.7473 7.008C54.1126 6.26133 55.6806 5.888 57.4513 5.888C59.1793 5.888 60.7153 6.25067 62.0593 6.976C63.4033 7.70133 64.4486 8.736 65.1953 10.08C65.9633 11.424 66.3472 12.992 66.3472 14.784ZM60.7473 13.344C60.7473 12.4053 60.4273 11.6587 59.7873 11.104C59.1473 10.5493 58.3473 10.272 57.3873 10.272C56.4699 10.272 55.6913 10.5387 55.0513 11.072C54.4326 11.6053 54.0486 12.3627 53.8993 13.344H60.7473ZM92.018 5.952C94.2367 5.952 95.9967 6.624 97.298 7.968C98.6207 9.312 99.282 11.1787 99.282 13.568V24H93.842V14.304C93.842 13.152 93.5327 12.2667 92.914 11.648C92.3167 11.008 91.4847 10.688 90.418 10.688C89.3513 10.688 88.5087 11.008 87.89 11.648C87.2927 12.2667 86.994 13.152 86.994 14.304V24H81.554V14.304C81.554 13.152 81.2447 12.2667 80.626 11.648C80.0287 11.008 79.1967 10.688 78.13 10.688C77.0633 10.688 76.2207 11.008 75.602 11.648C75.0047 12.2667 74.706 13.152 74.706 14.304V24H69.234V6.144H74.706V8.384C75.2607 7.63733 75.986 7.05067 76.882 6.624C77.778 6.176 78.7913 5.952 79.922 5.952C81.266 5.952 82.4607 6.24 83.506 6.816C84.5727 7.392 85.4047 8.21333 86.002 9.28C86.6207 8.29867 87.4633 7.49867 88.53 6.88C89.5967 6.26133 90.7593 5.952 92.018 5.952ZM119.941 14.784C119.941 15.296 119.909 15.8293 119.845 16.384H107.461C107.546 17.4933 107.898 18.3467 108.517 18.944C109.157 19.52 109.936 19.808 110.853 19.808C112.218 19.808 113.168 19.232 113.701 18.08H119.525C119.226 19.2533 118.682 20.3093 117.893 21.248C117.125 22.1867 116.154 22.9227 114.981 23.456C113.808 23.9893 112.496 24.256 111.045 24.256C109.296 24.256 107.738 23.8827 106.373 23.136C105.008 22.3893 103.941 21.3227 103.173 19.936C102.405 18.5493 102.021 16.928 102.021 15.072C102.021 13.216 102.394 11.5947 103.141 10.208C103.909 8.82133 104.976 7.75467 106.341 7.008C107.706 6.26133 109.274 5.888 111.045 5.888C112.773 5.888 114.309 6.25067 115.653 6.976C116.997 7.70133 118.042 8.736 118.789 10.08C119.557 11.424 119.941 12.992 119.941 14.784ZM114.341 13.344C114.341 12.4053 114.021 11.6587 113.381 11.104C112.741 10.5493 111.941 10.272 110.981 10.272C110.064 10.272 109.285 10.5387 108.645 11.072C108.026 11.6053 107.642 12.3627 107.493 13.344H114.341ZM133.74 24L128.3 16.512V24H122.828V0.32H128.3V13.408L133.708 6.144H140.46L133.036 15.104L140.524 24H133.74Z" fill="#203656"/>
<path d="M145.169 24.256C144.209 24.256 143.42 23.9787 142.801 23.424C142.204 22.848 141.905 22.144 141.905 21.312C141.905 20.4587 142.204 19.744 142.801 19.168C143.42 18.592 144.209 18.304 145.169 18.304C146.108 18.304 146.876 18.592 147.473 19.168C148.092 19.744 148.401 20.4587 148.401 21.312C148.401 22.144 148.092 22.848 147.473 23.424C146.876 23.9787 146.108 24.256 145.169 24.256Z" fill="#FE4F70"/>
</g>
<defs>
<clipPath id="clip0_2400_9">
<rect width="150" height="26" fill="white"/>
</clipPath>
</defs>
</svg>
